<svg width="464" height="100" viewBox="0 0 464 100" fill="none" xmlns="http://www.w3.org/2000/svg">
<rect x="364" width="100" height="100" rx="15" fill="#00BFC3"/>
<path d="M430.914 91.3672C426.559 91.3672 422.828 89.3359 421.637 85.918C420.016 81.2109 423.746 75.6445 429.977 73.4766C431.461 72.9688 433.023 72.6758 434.527 72.6172V40.2148C434.527 39.707 434.898 39.2969 435.406 39.2383L454.859 37.1289C455.133 37.0898 455.406 37.1875 455.621 37.3828C455.836 37.5586 455.953 37.832 455.953 38.1055V46.2891C455.953 46.7969 455.582 47.207 455.074 47.2656L444.625 48.3984V80.3906C444.625 82.0313 444.059 83.7305 443.004 85.293C441.422 87.6172 438.902 89.4727 435.895 90.5273C434.215 91.0938 432.516 91.3672 430.914 91.3672ZM434.996 74.5703C433.57 74.5703 432.066 74.8242 430.621 75.332C425.406 77.1484 422.203 81.6016 423.492 85.293C424.762 88.9648 430.055 90.4883 435.25 88.6914C437.867 87.793 440.035 86.1914 441.383 84.2188C442.223 82.9688 442.672 81.6602 442.672 80.4102V47.5195C442.672 47.0117 443.043 46.6016 443.551 46.543L454 45.4102V39.1992L436.5 41.0938V73.5938C436.5 73.8672 436.383 74.1211 436.207 74.2969C436.012 74.4727 435.758 74.5703 435.484 74.5703C435.309 74.5703 435.152 74.5703 434.996 74.5703Z" fill="#08273C"/>
<path d="M381.715 65.2344C377.359 65.2344 373.629 63.2031 372.438 59.7852C370.816 55.0781 374.547 49.5117 380.777 47.3438C382.262 46.8359 383.824 46.543 385.328 46.4844V14.0625C385.328 13.5547 385.699 13.1445 386.207 13.0859L427.535 8.61329C427.809 8.57422 428.082 8.67188 428.297 8.84766C428.512 9.02344 428.629 9.29688 428.629 9.57032V51.3867C428.629 53.0273 428.063 54.7266 427.008 56.2891C425.445 58.6133 422.906 60.4688 419.898 61.5234C413.668 63.6914 407.281 61.6211 405.641 56.9336C404.02 52.2461 407.75 46.6602 413.98 44.4922C415.465 43.9844 417.027 43.6914 418.531 43.6328V19.7461L395.406 22.2461V54.2383C395.406 55.8789 394.84 57.5781 393.785 59.1406C392.203 61.4648 389.684 63.3203 386.676 64.375C385.016 64.9414 383.336 65.2344 381.715 65.2344ZM385.797 48.418C384.371 48.418 382.867 48.6719 381.422 49.1797C376.207 50.9961 373.004 55.4492 374.293 59.1406C375.563 62.8125 380.855 64.3359 386.051 62.5391C388.668 61.6406 390.836 60.0391 392.184 58.0664C393.023 56.8164 393.473 55.5078 393.473 54.2578V21.3672C393.473 20.8594 393.844 20.4492 394.352 20.3906L419.43 17.6758C419.703 17.6367 419.977 17.7344 420.191 17.9102C420.406 18.0859 420.523 18.3594 420.523 18.6328V44.6094C420.523 44.8828 420.406 45.1367 420.23 45.3125C420.035 45.4883 419.781 45.5859 419.508 45.5859C417.926 45.5273 416.246 45.7813 414.645 46.3281C409.43 48.1445 406.227 52.5977 407.516 56.2891C408.785 59.9609 414.078 61.4844 419.273 59.6875C421.891 58.7891 424.059 57.1875 425.406 55.2149C426.246 53.9649 426.695 52.6563 426.695 51.4063V10.6836L387.301 14.9414V47.4609C387.301 47.7344 387.184 47.9883 387.008 48.1641C386.832 48.3398 386.559 48.4375 386.285 48.4375C386.129 48.418 385.953 48.418 385.797 48.418Z" fill="#08273C"/>
<path d="M398.824 73.6328C396.246 73.6328 394.156 71.543 394.156 68.9648C394.156 66.3867 396.246 64.2969 398.824 64.2969C401.402 64.2969 403.492 66.3867 403.492 68.9648C403.492 71.543 401.383 73.6328 398.824 73.6328ZM398.824 66.2695C397.32 66.2695 396.109 67.4805 396.109 68.9844C396.109 70.4883 397.32 71.6992 398.824 71.6992C400.328 71.6992 401.539 70.4883 401.539 68.9844C401.539 67.4805 400.309 66.2695 398.824 66.2695Z" fill="#08273C"/>
<path d="M416.715 74.1211C414.879 74.1211 413.375 72.6172 413.375 70.7813C413.375 68.9453 414.879 67.4414 416.715 67.4414C418.551 67.4414 420.055 68.9453 420.055 70.7813C420.055 72.6172 418.551 74.1211 416.715 74.1211ZM416.715 69.375C415.953 69.375 415.328 70 415.328 70.7617C415.328 71.5234 415.953 72.1484 416.715 72.1484C417.477 72.1484 418.102 71.5234 418.102 70.7617C418.102 70 417.477 69.375 416.715 69.375Z" fill="#08273C"/>
<path d="M450.465 16.25C448.629 16.25 447.125 14.7461 447.125 12.9102C447.125 11.0742 448.629 9.57031 450.465 9.57031C452.301 9.57031 453.805 11.0742 453.805 12.9102C453.805 14.7461 452.301 16.25 450.465 16.25ZM450.465 11.5039C449.703 11.5039 449.078 12.1289 449.078 12.8906C449.078 13.6523 449.703 14.2773 450.465 14.2773C451.227 14.2773 451.852 13.6523 451.852 12.8906C451.852 12.1289 451.227 11.5039 450.465 11.5039Z" fill="#08273C"/>
<path d="M407.262 89.5703C403.688 89.5703 400.758 86.6602 400.758 83.0664C400.758 79.4727 403.668 76.5625 407.262 76.5625C410.855 76.5625 413.766 79.4727 413.766 83.0664C413.766 86.6602 410.836 89.5703 407.262 89.5703ZM407.262 78.5352C404.762 78.5352 402.711 80.5664 402.711 83.0859C402.711 85.6055 404.742 87.6367 407.262 87.6367C409.781 87.6367 411.813 85.6055 411.813 83.0859C411.813 80.5664 409.762 78.5352 407.262 78.5352Z" fill="#08273C"/>
<path d="M440.094 31.25C436.52 31.25 433.59 28.3398 433.59 24.7461C433.59 21.1523 436.5 18.2422 440.094 18.2422C443.688 18.2422 446.598 21.1523 446.598 24.7461C446.598 28.3398 443.668 31.25 440.094 31.25ZM440.094 20.2148C437.594 20.2148 435.543 22.2461 435.543 24.7656C435.543 27.2852 437.574 29.3164 440.094 29.3164C442.613 29.3164 444.645 27.2852 444.645 24.7656C444.645 22.2461 442.594 20.2148 440.094 20.2148Z" fill="#08273C"/>
<path d="M2.30469 63V34.5625H13.418C16.3867 34.5625 18.6393 35.1875 20.1758 36.4375C21.7122 37.6745 22.4805 39.4974 22.4805 41.9062C22.4805 43.5078 22.1289 44.8294 21.4258 45.8711C20.7357 46.9128 19.8438 47.6289 18.75 48.0195V48.0977C20.0911 48.4492 21.2044 49.1979 22.0898 50.3438C22.9753 51.4766 23.418 53.013 23.418 54.9531C23.418 57.4922 22.5586 59.4714 20.8398 60.8906C19.1341 62.2969 16.8294 63 13.9258 63H2.30469ZM8.65234 58.5859H12.8906C14.2578 58.5859 15.2669 58.2148 15.918 57.4727C16.569 56.7305 16.8945 55.7279 16.8945 54.4648C16.8945 53.2018 16.569 52.1927 15.918 51.4375C15.2669 50.6823 14.2578 50.3047 12.8906 50.3047H8.65234V58.5859ZM8.65234 46.5352H12.4414C13.7826 46.5352 14.7461 46.2096 15.332 45.5586C15.931 44.8945 16.2305 43.9701 16.2305 42.7852C16.2305 41.5872 15.931 40.6758 15.332 40.0508C14.7461 39.4258 13.7826 39.1133 12.4414 39.1133H8.65234V46.5352ZM26.582 63V33.8789H32.9102V63H26.582ZM37.1094 63V43.8594H43.457V63H37.1094ZM36.6992 37.8047C36.6992 36.8802 37.0052 36.1055 37.6172 35.4805C38.2422 34.8555 39.1341 34.543 40.293 34.543C41.4518 34.543 42.3372 34.8555 42.9492 35.4805C43.5612 36.0924 43.8672 36.8672 43.8672 37.8047C43.8672 38.7292 43.5547 39.5104 42.9297 40.1484C42.3047 40.7865 41.4128 41.1055 40.2539 41.1055C39.1081 41.1055 38.2292 40.7865 37.6172 40.1484C37.0052 39.4974 36.6992 38.7161 36.6992 37.8047ZM46.6016 53.7031V53.0781C46.6016 50.0312 47.5195 47.6354 49.3555 45.8906C51.1914 44.1458 53.6523 43.2734 56.7383 43.2734C59.7331 43.2734 62.0312 43.957 63.6328 45.3242C65.2344 46.6914 66.0872 48.5013 66.1914 50.7539L66.2109 51.1445H60.1172V50.8906C60.1172 49.9661 59.8438 49.2174 59.2969 48.6445C58.75 48.0716 57.9297 47.7852 56.8359 47.7852C55.5859 47.7852 54.6289 48.2279 53.9648 49.1133C53.3138 49.9987 52.9883 51.2292 52.9883 52.8047V53.957C52.9883 55.5195 53.3073 56.7565 53.9453 57.668C54.5833 58.5794 55.5404 59.0352 56.8164 59.0352C57.9753 59.0352 58.8151 58.7422 59.3359 58.1562C59.8698 57.5703 60.1367 56.8346 60.1367 55.9492V55.7148H66.2109V56.0664C66.1849 58.2799 65.3516 60.0768 63.7109 61.457C62.0833 62.8372 59.7656 63.5273 56.7578 63.5273C53.6849 63.5273 51.224 62.6484 49.375 60.8906C47.526 59.1328 46.6016 56.737 46.6016 53.7031ZM69.0625 63V33.8594H75.3516V50.5L81.3867 43.8398H88.457L75.3516 57.5703V63H69.0625ZM82.0117 63L75.6445 53.9766L79.5703 49.6406L89.3945 63H82.0117ZM100.82 63V34.5625H109.59L115.586 51.8281C115.729 52.2708 115.853 52.7005 115.957 53.1172C116.074 53.5339 116.178 53.9831 116.27 54.4648H116.367C116.458 53.9831 116.562 53.5339 116.68 53.1172C116.797 52.7005 116.927 52.2708 117.07 51.8281L123.066 34.5625H131.895V63H125.488V45.6562C125.488 45.2135 125.495 44.7253 125.508 44.1914C125.521 43.6576 125.547 43.1693 125.586 42.7266H125.449C125.384 43.1823 125.286 43.6771 125.156 44.2109C125.026 44.7318 124.889 45.2135 124.746 45.6562L118.887 63H113.242L107.363 45.6562C107.22 45.2135 107.077 44.7057 106.934 44.1328C106.803 43.5599 106.712 43.0911 106.66 42.7266H106.523C106.549 43.0911 106.576 43.5599 106.602 44.1328C106.628 44.7057 106.641 45.2135 106.641 45.6562V63H100.82ZM136.094 56.0469V43.8594H142.383V55.5781C142.383 56.776 142.63 57.6094 143.125 58.0781C143.62 58.5469 144.297 58.7812 145.156 58.7812C145.924 58.7812 146.602 58.5534 147.188 58.0977C147.786 57.6289 148.249 57.043 148.574 56.3398V43.8594H154.863V63H148.77L148.691 60.5781H148.633C148.099 61.4505 147.318 62.1471 146.289 62.668C145.26 63.1888 144.049 63.4492 142.656 63.4492C140.716 63.4492 139.134 62.8763 137.91 61.7305C136.699 60.5846 136.094 58.6901 136.094 56.0469ZM158.027 56.8672L163.809 56.9062V57.2578C163.809 58.1562 164.102 58.7943 164.688 59.1719C165.286 59.5495 166.094 59.7383 167.109 59.7383C168.099 59.7383 168.835 59.5755 169.316 59.25C169.811 58.9115 170.059 58.4362 170.059 57.8242C170.059 57.2122 169.759 56.75 169.16 56.4375C168.574 56.112 167.337 55.7669 165.449 55.4023C163.04 54.9336 161.283 54.2109 160.176 53.2344C159.082 52.2448 158.535 50.9232 158.535 49.2695C158.535 47.3685 159.303 45.8971 160.84 44.8555C162.389 43.8008 164.512 43.2734 167.207 43.2734C169.876 43.2734 171.986 43.8203 173.535 44.9141C175.085 45.9948 175.859 47.5052 175.859 49.4453V49.7773H170.078V49.4062C170.078 48.651 169.824 48.0911 169.316 47.7266C168.822 47.349 168.086 47.1602 167.109 47.1602C166.198 47.1602 165.54 47.3099 165.137 47.6094C164.733 47.8958 164.531 48.306 164.531 48.8398C164.531 49.3477 164.824 49.7578 165.41 50.0703C166.009 50.3828 167.259 50.7214 169.16 51.0859C171.647 51.5417 173.457 52.2448 174.59 53.1953C175.723 54.1328 176.289 55.4349 176.289 57.1016C176.289 59.1849 175.514 60.7799 173.965 61.8867C172.428 62.9805 170.176 63.5273 167.207 63.5273C164.303 63.5273 162.057 62.974 160.469 61.8672C158.88 60.7604 158.066 59.1914 158.027 57.1602V56.8672ZM179.609 63V43.8594H185.957V63H179.609ZM179.199 37.8047C179.199 36.8802 179.505 36.1055 180.117 35.4805C180.742 34.8555 181.634 34.543 182.793 34.543C183.952 34.543 184.837 34.8555 185.449 35.4805C186.061 36.0924 186.367 36.8672 186.367 37.8047C186.367 38.7292 186.055 39.5104 185.43 40.1484C184.805 40.7865 183.913 41.1055 182.754 41.1055C181.608 41.1055 180.729 40.7865 180.117 40.1484C179.505 39.4974 179.199 38.7161 179.199 37.8047ZM189.102 53.7031V53.0781C189.102 50.0312 190.02 47.6354 191.855 45.8906C193.691 44.1458 196.152 43.2734 199.238 43.2734C202.233 43.2734 204.531 43.957 206.133 45.3242C207.734 46.6914 208.587 48.5013 208.691 50.7539L208.711 51.1445H202.617V50.8906C202.617 49.9661 202.344 49.2174 201.797 48.6445C201.25 48.0716 200.43 47.7852 199.336 47.7852C198.086 47.7852 197.129 48.2279 196.465 49.1133C195.814 49.9987 195.488 51.2292 195.488 52.8047V53.957C195.488 55.5195 195.807 56.7565 196.445 57.668C197.083 58.5794 198.04 59.0352 199.316 59.0352C200.475 59.0352 201.315 58.7422 201.836 58.1562C202.37 57.5703 202.637 56.8346 202.637 55.9492V55.7148H208.711V56.0664C208.685 58.2799 207.852 60.0768 206.211 61.457C204.583 62.8372 202.266 63.5273 199.258 63.5273C196.185 63.5273 193.724 62.6484 191.875 60.8906C190.026 59.1328 189.102 56.737 189.102 53.7031ZM220.234 55.207V54.0938H226.426V54.8359C226.426 56.2161 226.816 57.2448 227.598 57.9219C228.392 58.5859 229.505 58.918 230.938 58.918C232.318 58.918 233.379 58.612 234.121 58C234.876 57.375 235.254 56.5417 235.254 55.5C235.254 54.5104 234.863 53.7227 234.082 53.1367C233.301 52.5508 231.725 51.9128 229.355 51.2227C226.4 50.3372 224.206 49.1979 222.773 47.8047C221.341 46.4115 220.618 44.5755 220.605 42.2969C220.605 39.7839 221.523 37.7917 223.359 36.3203C225.195 34.8359 227.656 34.0938 230.742 34.0938C233.802 34.0938 236.263 34.8099 238.125 36.2422C240 37.6615 240.938 39.6276 240.938 42.1406V43.0586H234.844V42.4727C234.844 41.3138 234.499 40.4023 233.809 39.7383C233.132 39.0742 232.135 38.7422 230.82 38.7422C229.466 38.7422 228.47 39.0221 227.832 39.582C227.207 40.1289 226.895 40.8646 226.895 41.7891C226.895 42.6745 227.292 43.3776 228.086 43.8984C228.893 44.4062 230.508 45.0182 232.93 45.7344C235.807 46.5547 237.956 47.6745 239.375 49.0938C240.807 50.513 241.523 52.4596 241.523 54.9336C241.523 57.6159 240.553 59.7122 238.613 61.2227C236.686 62.7201 234.141 63.4688 230.977 63.4688C227.826 63.4688 225.247 62.7721 223.242 61.3789C221.237 59.9727 220.234 57.9154 220.234 55.207ZM243.945 53.7031V53.0781C243.945 50.0312 244.863 47.6354 246.699 45.8906C248.535 44.1458 250.996 43.2734 254.082 43.2734C257.077 43.2734 259.375 43.957 260.977 45.3242C262.578 46.6914 263.431 48.5013 263.535 50.7539L263.555 51.1445H257.461V50.8906C257.461 49.9661 257.188 49.2174 256.641 48.6445C256.094 48.0716 255.273 47.7852 254.18 47.7852C252.93 47.7852 251.973 48.2279 251.309 49.1133C250.658 49.9987 250.332 51.2292 250.332 52.8047V53.957C250.332 55.5195 250.651 56.7565 251.289 57.668C251.927 58.5794 252.884 59.0352 254.16 59.0352C255.319 59.0352 256.159 58.7422 256.68 58.1562C257.214 57.5703 257.48 56.8346 257.48 55.9492V55.7148H263.555V56.0664C263.529 58.2799 262.695 60.0768 261.055 61.457C259.427 62.8372 257.109 63.5273 254.102 63.5273C251.029 63.5273 248.568 62.6484 246.719 60.8906C244.87 59.1328 243.945 56.737 243.945 53.7031ZM266.406 63V33.8789H272.695V46.3984C273.203 45.513 273.965 44.7969 274.98 44.25C275.996 43.6901 277.253 43.4102 278.75 43.4102C280.625 43.4102 282.155 43.9701 283.34 45.0898C284.538 46.1966 285.137 48.013 285.137 50.5391V63H278.867V51.3594C278.867 50.1875 278.613 49.3542 278.105 48.8594C277.598 48.3646 276.901 48.1172 276.016 48.1172C275.247 48.1172 274.577 48.3451 274.004 48.8008C273.431 49.2565 272.995 49.8685 272.695 50.6367V63H266.406ZM288.125 53.7031V53.0781C288.125 50.1094 289.082 47.7331 290.996 45.9492C292.91 44.1654 295.43 43.2734 298.555 43.2734C301.68 43.2734 304.193 44.1654 306.094 45.9492C308.008 47.7331 308.965 50.1094 308.965 53.0781V53.7031C308.965 56.6849 308.008 59.0677 306.094 60.8516C304.193 62.6354 301.68 63.5273 298.555 63.5273C295.417 63.5273 292.891 62.6354 290.977 60.8516C289.076 59.0677 288.125 56.6849 288.125 53.7031ZM294.512 52.8047V53.957C294.512 55.5326 294.857 56.7695 295.547 57.668C296.237 58.5534 297.233 58.9961 298.535 58.9961C299.85 58.9961 300.853 58.5534 301.543 57.668C302.233 56.7695 302.578 55.5326 302.578 53.957V52.8047C302.578 51.2552 302.227 50.0443 301.523 49.1719C300.833 48.2865 299.837 47.8438 298.535 47.8438C297.246 47.8438 296.25 48.2865 295.547 49.1719C294.857 50.0443 294.512 51.2552 294.512 52.8047ZM311.094 53.7031V53.0781C311.094 50.1094 312.051 47.7331 313.965 45.9492C315.879 44.1654 318.398 43.2734 321.523 43.2734C324.648 43.2734 327.161 44.1654 329.062 45.9492C330.977 47.7331 331.934 50.1094 331.934 53.0781V53.7031C331.934 56.6849 330.977 59.0677 329.062 60.8516C327.161 62.6354 324.648 63.5273 321.523 63.5273C318.385 63.5273 315.859 62.6354 313.945 60.8516C312.044 59.0677 311.094 56.6849 311.094 53.7031ZM317.48 52.8047V53.957C317.48 55.5326 317.826 56.7695 318.516 57.668C319.206 58.5534 320.202 58.9961 321.504 58.9961C322.819 58.9961 323.822 58.5534 324.512 57.668C325.202 56.7695 325.547 55.5326 325.547 53.957V52.8047C325.547 51.2552 325.195 50.0443 324.492 49.1719C323.802 48.2865 322.806 47.8438 321.504 47.8438C320.215 47.8438 319.219 48.2865 318.516 49.1719C317.826 50.0443 317.48 51.2552 317.48 52.8047ZM335.059 63V33.8789H341.387V63H335.059Z" fill="#F4EDEA"/>
</svg>
